<svg width="256" height="256" viewBox="0 0 256 256" fill="none" xmlns="http://www.w3.org/2000/svg">
  <g clip-path="url(#clip0)">
    <path d="M128 0C57.3074 0 0 57.3074 0 128C0 198.693 57.3074 256 128 256C198.693 256 256 198.693 256 128C256 57.3074 198.693 0 128 0ZM108.174 228.174C82.2955 223.982 58.715 209.432 44.0036 187.124C43.7763 186.754 43.4573 186.361 43.4573 185.972C43.4573 185.314 44.3009 184.942 44.7609 185.445C65.1237 206.833 94.1946 220.444 126.724 220.444C150.136 220.444 171.367 213.501 188.163 201.433C188.595 201.115 189.137 200.91 189.679 200.91C190.656 200.91 191.225 201.865 190.879 202.764C184.21 219.461 165.095 229.718 142.21 229.718C130.899 229.718 120.401 227.793 111.605 224.255C110.805 223.933 109.634 223.856 108.174 223.856V228.174ZM182.678 166.113C181.393 166.082 180.445 165.086 180.445 163.801C180.445 163.412 180.68 163.04 181.019 162.845C183.586 161.306 185.98 159.453 188.057 157.389C188.364 157.092 188.87 157.092 189.183 157.389C189.552 157.694 189.558 158.271 189.199 158.575C187.313 160.175 185.264 161.626 183.002 162.887C182.822 162.98 182.568 163.046 182.678 166.113ZM197.076 144.793C196.362 145.114 195.609 145.349 194.836 145.505C193.703 145.754 193.084 144.897 193.584 143.913C193.84 143.431 194.303 142.94 194.89 142.497C196.262 141.454 197.644 140.469 199.01 139.497C199.46 139.186 200.058 139.41 200.058 139.957C200.058 141.525 198.85 143.086 197.076 144.793Z" fill="#00B3E6"/>
  </g>
  <defs>
    <clipPath id="clip0">
      <rect width="256" height="256" fill="white"/>
    </clipPath>
  </defs>
</svg>
